<?xml version="1.0" standalone="no"?>
<!DOCTYPE svg PUBLIC "-//W3C//DTD SVG 20010904//EN"
 "http://www.w3.org/TR/2001/REC-SVG-20010904/DTD/svg10.dtd">
<svg version="1.0" xmlns="http://www.w3.org/2000/svg"
 width="16" height="16" viewBox="0 0 250.000000 250.000000"
 preserveAspectRatio="xMidYMid meet">

<g transform="translate(0.000000,250.000000) scale(0.100000,-0.100000)"
fill="#000000" stroke="none">
<path d="M1174 2330 c-233 -29 -468 -200 -570 -415 -125 -263 -92 -573 86
-796 99 -124 237 -216 396 -261 111 -31 276 -31 389 1 259 75 444 258 526 521
34 108 34 302 0 410 -115 369 -448 586 -827 540z m274 -90 c243 -68 424 -249
488 -490 23 -86 23 -244 0 -330 -52 -194 -189 -362 -366 -446 -198 -94 -449
-83 -638 28 -31 18 -91 67 -133 108 -61 61 -85 94 -123 170 -100 205 -101 405
-2 605 89 181 238 302 436 356 93 25 245 25 338 -1z"/>
<path d="M1255 2222 c-81 -27 -120 -125 -80 -202 17 -33 80 -70 120 -70 41 0
99 35 119 73 57 105 -47 235 -159 199z"/>
<path d="M1080 2157 c-90 -31 -154 -70 -228 -141 -77 -73 -122 -145 -157 -251
-25 -74 -27 -89 -23 -205 6 -143 28 -216 96 -318 76 -111 216 -215 332 -247
22 -6 22 -4 -6 13 -90 58 -129 173 -101 305 l14 69 -35 70 c-30 59 -35 81 -36
142 -2 160 99 298 253 343 l54 15 -29 13 c-50 21 -84 70 -84 120 0 24 4 55 10
69 5 14 8 26 7 26 -1 0 -31 -11 -67 -23z"/>
<path d="M1464 2119 c9 -35 8 -45 -14 -85 -16 -31 -36 -52 -63 -66 l-40 -20
49 -17 c79 -27 158 -91 193 -158 6 -13 15 -23 19 -23 15 0 52 137 52 191 0 58
-25 123 -56 151 -19 17 -127 68 -143 68 -4 0 -3 -18 3 -41z"/>
<path d="M1768 1874 c-5 -93 -38 -161 -125 -256 -77 -85 -102 -144 -88 -214
12 -68 7 -203 -10 -258 -20 -63 -63 -120 -108 -142 -29 -15 -29 -13 9 20 61
52 77 101 74 216 -2 52 -4 128 -4 168 -1 39 -2 72 -3 72 -1 0 -11 -17 -23 -38
-20 -35 -57 -69 -66 -60 -2 2 15 46 37 97 70 164 79 230 41 306 -41 83 -106
119 -217 120 -68 0 -89 -4 -138 -28 -71 -35 -146 -108 -175 -171 -30 -63 -29
-85 3 -48 34 41 73 53 112 37 50 -21 49 -47 -8 -215 -81 -242 -79 -351 11
-440 35 -36 58 -50 99 -60 50 -12 75 -11 221 4 95 10 239 94 325 189 175 193
205 504 70 719 l-33 51 -4 -69z"/>
<path d="M390 735 c0 -21 5 -25 30 -25 25 0 30 4 30 25 0 21 -5 25 -30 25 -25
0 -30 -4 -30 -25z"/>
<path d="M982 733 c2 -22 8 -28 28 -28 20 0 26 6 28 28 3 24 0 27 -28 27 -28
0 -31 -3 -28 -27z"/>
<path d="M390 580 l0 -120 30 0 30 0 0 120 0 120 -30 0 -30 0 0 -120z"/>
<path d="M545 691 c-11 -5 -31 -21 -45 -35 -22 -24 -24 -36 -25 -109 0 -81 0
-82 25 -82 24 0 25 3 28 60 1 33 4 69 7 81 6 28 50 47 75 34 31 -16 40 -44 40
-114 0 -64 1 -66 25 -66 25 0 25 1 25 85 0 78 -2 87 -27 115 -30 33 -90 48
-128 31z"/>
<path d="M730 621 c0 -76 1 -81 33 -115 43 -45 77 -54 119 -29 56 33 78 76 78
154 l0 69 -30 0 -30 0 0 -70 c0 -57 -4 -74 -20 -90 -50 -50 -100 -2 -100 96 0
62 -1 64 -25 64 -25 0 -25 -1 -25 -79z"/>
<path d="M1118 682 c-16 -9 -35 -32 -44 -51 -20 -42 -8 -95 32 -132 22 -21 35
-24 97 -24 70 0 72 1 72 25 0 24 -3 25 -65 28 -69 3 -90 16 -90 56 0 40 17 51
87 56 65 5 68 6 71 33 l3 27 -68 0 c-46 0 -77 -6 -95 -18z"/>
<path d="M1310 602 c0 -116 10 -132 78 -132 38 0 42 2 42 25 0 22 -4 25 -35
25 -34 0 -35 1 -35 40 0 39 1 40 35 40 32 0 35 2 35 30 0 28 -3 30 -35 30 -28
0 -35 4 -35 20 0 15 -7 20 -25 20 -25 0 -25 0 -25 -98z"/>
<path d="M1462 615 c5 -93 17 -117 75 -141 44 -19 88 -8 123 33 28 31 30 39
30 113 0 79 0 80 -25 80 -24 0 -25 -3 -25 -62 0 -78 -16 -112 -54 -116 -49 -6
-66 21 -66 105 l0 73 -31 0 -32 0 5 -85z"/>
<path d="M1752 684 c-16 -11 -22 -25 -22 -53 0 -51 19 -65 94 -71 45 -4 61 -9
61 -20 0 -12 -17 -16 -77 -18 -75 -3 -78 -4 -78 -27 0 -24 2 -25 80 -25 73 0
83 3 105 25 28 27 31 61 9 90 -11 15 -30 21 -77 25 -46 4 -62 9 -62 20 0 13
27 15 175 18 229 4 401 -18 431 -55 26 -31 -137 -72 -288 -73 -71 0 -73 -1
-73 -25 0 -25 1 -25 88 -25 120 0 196 14 269 50 83 41 94 62 53 100 -64 60
-180 80 -460 80 -170 0 -209 -3 -228 -16z"/>
<path d="M982 451 c4 -292 -1 -281 124 -281 74 0 84 2 98 22 19 27 20 61 5 91
-17 32 -28 37 -86 37 -50 0 -53 -1 -53 -25 0 -23 4 -25 44 -25 43 0 58 -11 49
-37 -3 -8 -24 -13 -58 -13 -60 0 -75 14 -75 69 0 58 5 61 96 61 l84 0 0 30 0
30 -85 0 -85 0 0 140 0 140 -31 0 -30 0 3 -239z"/>
<path d="M51 634 c-28 -35 -27 -75 2 -102 30 -28 87 -29 112 -2 14 16 33 20
104 22 86 3 86 3 89 31 l3 27 -85 0 c-77 0 -87 2 -110 25 -35 35 -87 34 -115
-1z"/>
<path d="M1310 413 c-8 -3 -25 -15 -37 -26 -21 -18 -23 -30 -23 -114 l0 -93
30 0 c28 0 30 3 30 35 l0 35 55 0 55 0 0 -35 c0 -31 3 -35 25 -35 25 0 25 0
25 100 0 96 -1 100 -26 116 -26 18 -108 28 -134 17z m103 -50 c4 -2 7 -17 7
-34 0 -29 -1 -29 -55 -29 -55 0 -55 0 -55 30 0 22 6 33 23 39 20 8 60 5 80 -6z"/>
<path d="M1520 400 c-6 -12 -10 -61 -8 -118 l3 -97 28 -3 27 -3 0 77 0 78 28
-27 c34 -33 49 -34 79 -5 l23 21 0 -71 0 -72 30 0 30 0 0 109 c0 83 -3 111
-15 121 -19 16 -50 5 -69 -25 -22 -33 -46 -31 -81 5 -33 35 -60 38 -75 10z"/>
<path d="M1800 300 l0 -120 25 0 25 0 0 120 0 120 -25 0 -25 0 0 -120z"/>
<path d="M1902 408 c-8 -8 -12 -49 -12 -120 l0 -108 30 0 30 0 0 72 0 72 51
-73 c44 -62 55 -72 78 -69 l26 3 3 118 3 118 -28 -3 c-27 -3 -28 -5 -33 -73
l-5 -69 -43 66 c-50 77 -74 92 -100 66z"/>
<path d="M2169 394 c-21 -22 -24 -35 -24 -99 0 -103 12 -115 120 -115 90 0
101 6 111 57 6 30 -8 71 -30 85 -6 4 -35 8 -63 8 -50 0 -53 -2 -53 -24 0 -22
5 -25 43 -28 35 -3 43 -7 45 -26 3 -22 1 -23 -55 -20 -52 3 -59 6 -67 29 -5
14 -6 42 -2 62 l7 36 82 3 c81 3 82 3 85 31 l3 27 -89 0 c-82 0 -90 -2 -113
-26z"/>
</g>
</svg>
